#N canvas 860 595 689 405 12;
#X obj 151 84 hw1;
#X floatatom 87 31 5 0 0 0 - - - 0;
#X floatatom 229 42 5 0 0 0 - - - 0;
#X floatatom 134 145 5 0 0 0 - - - 0;
#X connect 0 0 3 0;
#X connect 1 0 0 0;
#X connect 2 0 0 1;
